<svg xmlns="http://www.w3.org/2000/svg" shape-rendering="geometricPrecision" text-rendering="geometricPrecision" image-rendering="optimizeQuality" fill-rule="evenodd" clip-rule="evenodd" viewBox="0 0 429 512.24"><path d="M227.48 15.53c86.59 4.61 176.38 69.03 195.58 154.43H423l-24.77 20.78-23.83-20.78h-3.24l-24.9 20.93-23.93-20.93h-5.95l-24.77 20.78-42.12-20.78h-3.16c.02.18.02.35.02.5 0 7.19-5.84 13.4-14.32 16.35v23.26h-24.9V185.6c-6.87-3.24-11.4-8.82-11.4-15.14 0-.15.02-.34.02-.5h-10.03l-42.12 20.78-24.77-20.78h-5.98l-23.9 20.93-24.91-20.9-3.26-.03-23.8 20.78-24.77-20.78h-.18C31.08 85.22 119.91 21.14 205.6 15.66L217.05 0l10.43 15.53zM33.94 345.42C-2.7 326.79 1.5 306.03 38.32 308.2l8.24 15.45 16.98-52.83c6.68-20.79 17.79-39.65 39.59-39.65h222.74c21.8 0 32.91 18.86 39.59 39.65l16.98 52.83 8.24-15.45c36.82-2.17 41.02 18.59 4.38 37.22 40.81 26.43 35.17 72.68 31.17 123.97.07.64.13 1.27.13 1.93v28.54c0 6.81-5.57 12.38-12.38 12.38h-52.83c-6.81 0-12.38-5.57-12.38-12.38v-9.94H80.23v9.94c0 6.81-5.57 12.38-12.38 12.38H15.02c-6.81 0-12.38-5.57-12.38-12.38v-28.54c0-.66.06-1.29.13-1.93-4-51.29-9.64-97.54 31.17-123.97zm126.04 101.77h109.04c1.32 0 2.4 1.08 2.4 2.41v17.37c0 1.32-1.08 2.41-2.4 2.41H159.98c-1.32 0-2.4-1.09-2.4-2.41V449.6a2.41 2.41 0 0 1 2.4-2.41zm54.52-195.22H110.34c-16.59 0-25.1 14.38-30.21 30.2L64.18 335.3v2.51-2.51h300.64v2.51-2.51l-15.95-53.13c-5.11-15.82-13.62-30.2-30.21-30.2H214.5zm113.11 154.28 46.92-5.91c11.08-1.23 14.05 3.44 10.28 12.98l-5.07 12.32c-1.64 3.17-3.81 5.47-6.34 7.07-2.97 1.84-6.54 2.74-10.51 2.91l-41.86.33c-10.11-.03-14.48-4.07-11.31-13.35 2.6-8.71 8.54-14.18 17.89-16.35zm-226.22 0-46.92-5.91c-11.08-1.23-14.05 3.44-10.28 12.98l5.07 12.32c1.64 3.17 3.81 5.47 6.34 7.07 2.97 1.84 6.54 2.74 10.51 2.91l41.86.33c10.11-.03 14.48-4.07 11.31-13.35-2.6-8.71-8.54-14.18-17.89-16.35z"/></svg>