<svg id="Layer_1" data-name="Layer 1" xmlns="http://www.w3.org/2000/svg" viewBox="0 0 120.92 122.88"><title>first-time</title><path d="M111.3,29.61a5,5,0,1,0-8.46,5.45,50.8,50.8,0,0,1,4.23,8.11c1.86,4.76,9.2,3.87,9.67-1.55a5,5,0,0,0-.37-2.3,60.14,60.14,0,0,0-5.07-9.71Zm-43.45,14,.47-2.75a11.28,11.28,0,0,0,2.75.39,14.76,14.76,0,0,0,2-.11v-.83l-1.5-.13a4.45,4.45,0,0,1-2.79-1A3.29,3.29,0,0,1,68,36.83a3.74,3.74,0,0,1,.93-2.93,4.82,4.82,0,0,1,3.14-.8,18.06,18.06,0,0,1,4,.41l-.41,2.67a16,16,0,0,0-2.49-.25,14,14,0,0,0-1.58.08v.82l1.2.11a5.09,5.09,0,0,1,3,1,3.07,3.07,0,0,1,.84,2.29,4.91,4.91,0,0,1-.29,1.78,3,3,0,0,1-.67,1.1,2.53,2.53,0,0,1-1.11.57,7.11,7.11,0,0,1-1.25.24c-.36,0-.85,0-1.44,0a17.58,17.58,0,0,1-4-.43ZM85.72,36H83.31v7.74H80V36H77.57V33.35h8.15V36ZM43.52,85.5H40.7v9H36.82v-9H34V82.4h9.51v3.1Zm1.5,9V82.4H48.9V94.53Zm9.83,0H50.79l.74-12.13H56.6l1.51,6.17h.13l1.52-6.17h5.06l.74,12.13H61.5l-.23-5.88h-.13l-1.48,5.88h-3L55.2,88.65h-.12l-.23,5.88ZM75.21,90H71.33v1.47h4.76v3.11H67.45V82.4H76l-.48,3.1H71.33v1.63h3.88V90Zm.54-12H34.18V66.43H49.25v-19L39,48.12V36.65L53,33.1H64.3V66.43H75.75V77.9ZM103,16.34a5,5,0,0,1,.33,1.55,5,5,0,0,1-3.5,5.61L86.43,27.6A5,5,0,0,1,83.51,18l.58-.17a50.43,50.43,0,1,0-35,93.69,4.58,4.58,0,0,1,.63.1,52.49,52.49,0,0,0,9.08,1.17H59l1.45,0a5,5,0,1,1,0,10.07A60.48,60.48,0,1,1,89.57,9.36l-1-2.53A5,5,0,1,1,98,3.24l5,13.1Zm-26.2,93.85a5,5,0,0,0,1.48,9.8,5.22,5.22,0,0,0,1.76-.27,60.2,60.2,0,0,0,10-4.43,5,5,0,1,0-4.9-8.8,49.55,49.55,0,0,1-8.37,3.7ZM99.18,94.9a5,5,0,1,0,7.74,6.43,57.8,57.8,0,0,0,6.21-9,5,5,0,0,0-8-6,5,5,0,0,0-.8,1.07,50.84,50.84,0,0,1-5.16,7.52Zm11.08-24.79c-.9,5.43,6.72,8.28,9.5,3a5.35,5.35,0,0,0,.45-1.44l0-.26a63.64,63.64,0,0,0,.65-10.68,5,5,0,0,0-9.79-1.5,4.82,4.82,0,0,0-.27,1.77,53.43,53.43,0,0,1-.58,9.11v0Z"/></svg>