<svg xmlns="http://www.w3.org/2000/svg" shape-rendering="geometricPrecision" text-rendering="geometricPrecision" image-rendering="optimizeQuality" fill-rule="evenodd" clip-rule="evenodd" viewBox="0 0 512 506.49"><path fill-rule="nonzero" d="M294.24 17.11C294.24 7.69 303.53 0 315.1 0s20.87 7.65 20.87 17.11v74.85c0 9.42-9.3 17.11-20.87 17.11s-20.86-7.65-20.86-17.11V17.11zM442 363.99l-52.68 50.53v-25.2c-30.72-6.16-55.58-1.68-75.7 23.36 2.84-43.99 31.55-71.72 75.7-73.58v-25.63L442 363.99zm-64.18-103.05c-30.78 0-58.65 12.47-78.74 32.57-20.15 20.19-32.62 48.05-32.62 78.8s12.46 58.6 32.61 78.75l.54.58c20.09 19.77 47.72 32.02 78.21 32.02 30.76 0 58.65-12.47 78.77-32.58 20.13-20.17 32.58-48.02 32.58-78.77 0-30.75-12.47-58.61-32.62-78.75l-.54-.6c-20.06-19.77-47.69-32.02-78.19-32.02zm-94.85 16.5c24.29-24.29 57.87-39.33 94.85-39.33 36.65 0 69.94 14.78 94.18 38.68l.68.63C496.96 301.7 512 335.25 512 372.31c0 37.02-15.03 70.61-39.3 94.88-24.32 24.26-57.86 39.3-94.88 39.3-36.69 0-69.97-14.78-94.2-38.66l-.69-.64c-24.27-24.27-39.29-57.86-39.29-94.88 0-37.06 15.04-70.61 39.33-94.87zM56.81 242.28c-1.18 0-2.24-5.2-2.24-11.57 0-6.38.94-11.53 2.24-11.53h56.94c1.19 0 2.24 5.2 2.24 11.53 0 6.39-.93 11.57-2.24 11.57H56.81zm90.78 0c-1.19 0-2.25-5.2-2.25-11.57 0-6.38.94-11.53 2.25-11.53h56.94c1.18 0 2.24 5.2 2.24 11.53 0 6.39-.94 11.57-2.24 11.57h-56.94zm90.77 0c-1.19 0-2.24-5.2-2.24-11.57 0-6.38.93-11.53 2.24-11.53h56.94c1.18 0 2.24 5.15 2.24 11.49-5.71 3.55-11.2 7.44-16.44 11.61h-42.74zM56.94 308.52c-1.18 0-2.24-5.2-2.24-11.57 0-6.39.93-11.58 2.24-11.58h56.94c1.18 0 2.24 5.19 2.24 11.58 0 6.37-.93 11.57-2.24 11.57H56.94zm90.77 0c-1.18 0-2.24-5.2-2.24-11.57 0-6.39.93-11.58 2.24-11.58h56.94c1.18 0 2.24 5.19 2.24 11.58 0 6.37-.93 11.57-2.24 11.57h-56.94zM57.06 374.8c-1.18 0-2.24-5.2-2.24-11.59 0-6.36.94-11.56 2.24-11.56H114c1.19 0 2.24 5.2 2.24 11.56 0 6.39-.93 11.59-2.24 11.59H57.06zm90.77 0c-1.18 0-2.24-5.2-2.24-11.59 0-6.36.94-11.56 2.24-11.56h56.94c1.19 0 2.25 5.2 2.25 11.56 0 6.39-.94 11.59-2.25 11.59h-56.94zM106.82 17.11c0-9.42 9.3-17.11 20.87-17.11s20.86 7.65 20.86 17.11v74.85c0 9.42-9.33 17.11-20.86 17.11-11.57 0-20.87-7.65-20.87-17.11V17.11zM22.98 163.64h397.39V77.46c0-2.94-1.18-5.53-3.08-7.43-1.9-1.9-4.61-3.08-7.45-3.08h-38.09c-6.39 0-11.57-5.2-11.57-11.57 0-6.38 5.18-11.58 11.57-11.58h38.09c9.35 0 17.71 3.77 23.83 9.89 6.13 6.13 9.88 14.49 9.88 23.82v136.81c-7.6-2.62-15.41-4.73-23.45-6.29v-21.38h.27H22.98v223.16c0 2.95 1.18 5.53 3.08 7.43 1.9 1.9 4.61 3.08 7.43 3.08h188.86a169.63 169.63 0 0 0 8.11 23.36H33.71c-9.3 0-17.7-3.75-23.82-9.89C3.75 427.72 0 419.36 0 410.02V77.55c0-9.29 3.75-17.7 9.89-23.82 6.12-6.13 14.48-9.89 23.82-9.89h40.67c6.38 0 11.58 5.21 11.58 11.57 0 6.39-5.2 11.59-11.58 11.59H33.71c-2.96 0-5.54 1.18-7.44 3.08-1.9 1.9-3.09 4.59-3.09 7.43v86.16h-.2v-.03zm158.94-96.69c-6.37 0-11.57-5.2-11.57-11.57 0-6.38 5.2-11.58 11.57-11.58h77.55c6.39 0 11.58 5.2 11.58 11.58 0 6.37-5.19 11.57-11.58 11.57h-77.55z"/></svg>