<svg id="visual" viewBox="0 0 900 600" width="900" height="600" xmlns="http://www.w3.org/2000/svg" xmlns:xlink="http://www.w3.org/1999/xlink" version="1.1"><path d="M0 91L13.7 100C27.3 109 54.7 127 82 133C109.3 139 136.7 133 163.8 121C191 109 218 91 245.2 90C272.3 89 299.7 105 327 115C354.3 125 381.7 129 409 123C436.3 117 463.7 101 491 98C518.3 95 545.7 105 573 120C600.3 135 627.7 155 654.8 163C682 171 709 167 736.2 155C763.3 143 790.7 123 818 107C845.3 91 872.7 79 886.3 73L900 67L900 0L886.3 0C872.7 0 845.3 0 818 0C790.7 0 763.3 0 736.2 0C709 0 682 0 654.8 0C627.7 0 600.3 0 573 0C545.7 0 518.3 0 491 0C463.7 0 436.3 0 409 0C381.7 0 354.3 0 327 0C299.7 0 272.3 0 245.2 0C218 0 191 0 163.8 0C136.7 0 109.3 0 82 0C54.7 0 27.3 0 13.7 0L0 0Z" fill="#3a3a3a"></path><path d="M0 139L13.7 154C27.3 169 54.7 199 82 216C109.3 233 136.7 237 163.8 224C191 211 218 181 245.2 175C272.3 169 299.7 187 327 205C354.3 223 381.7 241 409 240C436.3 239 463.7 219 491 207C518.3 195 545.7 191 573 199C600.3 207 627.7 227 654.8 235C682 243 709 239 736.2 224C763.3 209 790.7 183 818 161C845.3 139 872.7 121 886.3 112L900 103L900 65L886.3 71C872.7 77 845.3 89 818 105C790.7 121 763.3 141 736.2 153C709 165 682 169 654.8 161C627.7 153 600.3 133 573 118C545.7 103 518.3 93 491 96C463.7 99 436.3 115 409 121C381.7 127 354.3 123 327 113C299.7 103 272.3 87 245.2 88C218 89 191 107 163.8 119C136.7 131 109.3 137 82 131C54.7 125 27.3 107 13.7 98L0 89Z" fill="#282828"></path><path d="M0 175L13.7 200C27.3 225 54.7 275 82 295C109.3 315 136.7 305 163.8 292C191 279 218 263 245.2 259C272.3 255 299.7 263 327 274C354.3 285 381.7 299 409 304C436.3 309 463.7 305 491 296C518.3 287 545.7 273 573 270C600.3 267 627.7 275 654.8 278C682 281 709 279 736.2 272C763.3 265 790.7 253 818 241C845.3 229 872.7 217 886.3 211L900 205L900 101L886.3 110C872.7 119 845.3 137 818 159C790.7 181 763.3 207 736.2 222C709 237 682 241 654.8 233C627.7 225 600.3 205 573 197C545.7 189 518.3 193 491 205C463.7 217 436.3 237 409 238C381.7 239 354.3 221 327 203C299.7 185 272.3 167 245.2 173C218 179 191 209 163.8 222C136.7 235 109.3 231 82 214C54.7 197 27.3 167 13.7 152L0 137Z" fill="#171717"></path><path d="M0 361L13.7 371C27.3 381 54.7 401 82 405C109.3 409 136.7 397 163.8 399C191 401 218 417 245.2 416C272.3 415 299.7 397 327 404C354.3 411 381.7 443 409 468C436.3 493 463.7 511 491 500C518.3 489 545.7 449 573 424C600.3 399 627.7 389 654.8 388C682 387 709 395 736.2 394C763.3 393 790.7 383 818 377C845.3 371 872.7 369 886.3 368L900 367L900 203L886.3 209C872.7 215 845.3 227 818 239C790.7 251 763.3 263 736.2 270C709 277 682 279 654.8 276C627.7 273 600.3 265 573 268C545.7 271 518.3 285 491 294C463.7 303 436.3 307 409 302C381.7 297 354.3 283 327 272C299.7 261 272.3 253 245.2 257C218 261 191 277 163.8 290C136.7 303 109.3 313 82 293C54.7 273 27.3 223 13.7 198L0 173Z" fill="#151515"></path><path d="M0 601L13.7 601C27.3 601 54.7 601 82 601C109.3 601 136.7 601 163.8 601C191 601 218 601 245.2 601C272.3 601 299.7 601 327 601C354.3 601 381.7 601 409 601C436.3 601 463.7 601 491 601C518.3 601 545.7 601 573 601C600.3 601 627.7 601 654.8 601C682 601 709 601 736.2 601C763.3 601 790.7 601 818 601C845.3 601 872.7 601 886.3 601L900 601L900 365L886.3 366C872.7 367 845.3 369 818 375C790.7 381 763.3 391 736.2 392C709 393 682 385 654.8 386C627.7 387 600.3 397 573 422C545.7 447 518.3 487 491 498C463.7 509 436.3 491 409 466C381.7 441 354.3 409 327 402C299.7 395 272.3 413 245.2 414C218 415 191 399 163.8 397C136.7 395 109.3 407 82 403C54.7 399 27.3 379 13.7 369L0 359Z" fill="#131313"></path></svg>